#!OML:ASF F:\VICON\USERDATA\INSTALL\Justin_Nancy\Justin_Nancy.ASF
:FULLY-SPECIFIED
:DEGREES
143
root 7.80599 17.4994 -8.14802 -0.769768 -10.9129 5.81236
lowerback 6.18778 -1.07136 -4.58005
upperback 0.530894 -1.68014 2.14452
thorax -2.72554 -0.775728 4.94374
lowerneck -17.86 -3.84052 -9.66423
upperneck 21.9363 -3.71936 4.45388
head 10.2389 -2.01406 2.66128
rclavicle 8.05078e-015 -3.18055e-015
rhumerus -36.8088 -22.9352 -71.6305
rradius 25.3104
rwrist 11.5707
rhand -14.415 15.3942
rfingers 7.12502
rthumb 11.7289 -14.2574
lclavicle 8.05078e-015 -3.18055e-015
lhumerus -24.6025 11.0023 81.9407
lradius 30.4523
lwrist -7.88356
lhand -16.0863 26.3372
lfingers 7.12502
lthumb 10.1169 56.074
rfemur -24.5299 -5.34266 21.457
rtibia 20.668
rfoot -0.773098 -11.2484
rtoes 5.0404
lfemur 7.41937 -0.983873 -24.8158
ltibia 29.7707
lfoot -6.64147 4.79196
ltoes -28.3799
144
root 7.73742 17.516 -8.0054 -0.819436 -11.6424 6.02847
lowerback 5.97303 -0.999907 -4.83109
upperback 0.5966 -1.59434 2.07004
thorax -2.54257 -0.737601 4.994
lowerneck -17.9305 -3.77159 -9.65671
upperneck 21.9601 -3.64749 4.5676
head 10.2564 -1.96685 2.71116
rclavicle -1.75924e-014 4.77083e-015
rhumerus -36.5025 -23.1651 -71.6598
rradius 25.0415
rwrist 11.7444
rhand -14.0486 16.187
rfingers 7.12502
rthumb 12.0823 -13.4442
lclavicle -1.75924e-014 4.77083e-015
lhumerus -24.9559 11.4396 81.7586
lradius 30.4012
lwrist -7.90168
lhand -16.0788 26.0752
lfingers 7.12502
lthumb 10.1242 55.8116
rfemur -24.3605 -4.88068 21.4596
rtibia 21.2254
rfoot -0.770041 -10.9811
rtoes 7.68694
lfemur 6.6115 -0.555783 -24.7896
ltibia 31.5628
lfoot -5.03208 4.10459
ltoes -28.5144
145
root 7.66778 17.5278 -7.86572 -0.858662 -12.3055 6.03995
lowerback 6.12675 -0.997216 -4.95868
upperback 0.426658 -1.60705 2.10531
thorax -2.79913 -0.730338 5.11255
lowerneck -17.7544 -3.61668 -9.54379
upperneck 22.0625 -3.47672 4.52847
head 10.2427 -1.88813 2.70574
rclavicle -1.50082e-014 -2.54444e-014
rhumerus -36.5843 -23.2341 -71.4677
rradius 24.9069
rwrist 11.7316
rhand -13.2548 17.289
rfingers 7.12502
rthumb 12.8475 -12.2956
lclavicle -1.50082e-014 -2.54444e-014
lhumerus -25.792 11.8079 81.5312
lradius 30.4483
lwrist -7.70972
lhand -16.3185 25.9599
lfingers 7.12502
lthumb 9.89289 55.7075
rfemur -24.0786 -4.38082 21.6631
rtibia 21.5974
rfoot -0.712055 -10.893
rtoes 8.53378
lfemur 5.84626 0.0275303 -24.4683
ltibia 33.4123
lfoot -3.3252 3.30206
ltoes -28.9562
146
root 7.59714 17.5434 -7.72349 -0.948153 -12.8084 6.11855
lowerback 6.2259 -0.919161 -5.12141
upperback 0.32508 -1.52086 2.07962
thorax -2.96764 -0.6775 5.1764
lowerneck -17.4642 -3.63384 -9.42727
upperneck 21.996 -3.56831 4.54019
head 10.1686 -1.92203 2.6788
rclavicle 4.16454e-014 -4.77083e-015
rhumerus -36.7749 -23.5318 -71.2435
rradius 25.0354
rwrist 11.4151
rhand -12.3701 17.8891
rfingers 7.12502
rthumb 13.7003 -11.64
lclavicle 4.16454e-014 -4.77083e-015
lhumerus -26.4884 11.7949 81.4402
lradius 30.5892
lwrist -7.65479
lhand -16.0098 25.7266
lfingers 7.12502
lthumb 10.1907 55.4598
rfemur -23.6345 -4.15684 21.8132
rtibia 21.7796
rfoot -0.656672 -10.4555
rtoes 9.08394
lfemur 5.01056 0.424597 -24.2145
ltibia 35.3348
lfoot -1.51066 2.39166
ltoes -28.6159
147
root 7.52656 17.5664 -7.57872 -1.11746 -13.3218 5.9574
lowerback 6.25863 -0.831478 -4.93775
upperback 0.457643 -1.39177 2.06143
thorax -2.86926 -0.621967 5.04085
lowerneck -17.6944 -3.7254 -9.26313
upperneck 22.0708 -3.71103 4.49345
head 10.2454 -1.97763 2.61321
rclavicle -1.5207e-014 -9.54166e-015
rhumerus -36.6435 -23.6186 -71.4272
rradius 25.2971
rwrist 11.2729
rhand -12.0111 17.8508
rfingers 7.12502
rthumb 14.0463 -11.6545
lclavicle -1.5207e-014 -9.54166e-015
lhumerus -26.7568 11.9116 81.4096
lradius 30.4776
lwrist -7.80127
lhand -15.6352 25.6216
lfingers 7.12502
lthumb 10.552 55.3367
rfemur -22.8929 -4.00766 22.2141
rtibia 21.7397
rfoot -0.495419 -9.79416
rtoes 10.6196
lfemur 4.12457 0.846979 -23.6859
ltibia 37.3295
lfoot 0.53878 1.28002
ltoes -27.3403
